<svg id="Layer_1" data-name="Layer 1" xmlns="http://www.w3.org/2000/svg" viewBox="0 0 60 60"><defs><style>.cls-1{fill:#cdf200;}.cls-2{fill:#dfeaf3;}.cls-3{fill:#102639;}.cls-4{fill:#152637;}</style></defs><path class="cls-1" d="M42.84,23.26h6.83l-5.82-12a3.12,3.12,0,1,0-5.72,2.51Z"/><rect class="cls-2" x="17.97" y="31.43" width="4.36" height="13.33" rx="2.18"/><path class="cls-3" d="M20.15,46.08a3.5,3.5,0,0,1-3.5-3.5v-9a3.51,3.51,0,0,1,7,0v9A3.51,3.51,0,0,1,20.15,46.08Zm0-13.32a.86.86,0,0,0-.85.85v9a.86.86,0,0,0,1.71,0v-9A.86.86,0,0,0,20.15,32.76Z"/><rect class="cls-2" x="27.79" y="31.43" width="4.36" height="13.33" rx="2.18"/><path class="cls-3" d="M30,46.08a3.5,3.5,0,0,1-3.5-3.5v-9a3.51,3.51,0,0,1,7,0v9A3.51,3.51,0,0,1,30,46.08Zm0-13.32a.86.86,0,0,0-.85.85v9a.86.86,0,0,0,1.71,0v-9A.85.85,0,0,0,30,32.76Z"/><rect class="cls-2" x="37.62" y="31.43" width="4.36" height="13.33" rx="2.18"/><path class="cls-3" d="M39.8,46.08a3.51,3.51,0,0,1-3.51-3.5v-9a3.51,3.51,0,0,1,7,0v9A3.5,3.5,0,0,1,39.8,46.08Zm0-13.32a.85.85,0,0,0-.86.85v9a.86.86,0,0,0,1.71,0v-9A.85.85,0,0,0,39.8,32.76Z"/><path class="cls-1" d="M18.16,23.26l3.71-9.47a3.12,3.12,0,1,0-5.72-2.51l-4.82,12Z"/><path class="cls-4" d="M56.5,26.33a4.39,4.39,0,0,0-4.34-4.07h-1.8a1,1,0,0,0-.06-.16l-5-11.45a4.69,4.69,0,0,0-8.59,3.77l3.44,7.84H19.86l3.44-7.84a4.69,4.69,0,1,0-8.59-3.77L9.7,22.1a1,1,0,0,0-.06.16H7.73A4.2,4.2,0,0,0,3.5,26.44v1.63a4.23,4.23,0,0,0,3.63,4.18L10.52,48.8a4.18,4.18,0,0,0,4.14,3.35H45.34a4.18,4.18,0,0,0,4.14-3.35l3.39-16.55a4.23,4.23,0,0,0,3.63-4.18V26.33ZM39.56,13.16a1.56,1.56,0,1,1,2.86-1.25L47,22.26H43.55Zm-22-1.25a1.56,1.56,0,1,1,2.86,1.25l-4,9.1H13ZM53.5,28.07a1.23,1.23,0,0,1-1.23,1.23A2.28,2.28,0,0,0,50,31.11L46.55,48.19a1.22,1.22,0,0,1-1.21,1H14.66a1.2,1.2,0,0,1-1.2-.95L10,31.12A2.28,2.28,0,0,0,7.73,29.3,1.23,1.23,0,0,1,6.5,28.07V26.44a1.19,1.19,0,0,1,1.23-1.18H52.16A1.36,1.36,0,0,1,53.5,26.5Z"/></svg>