<svg id="Layer_1" data-name="Layer 1" xmlns="http://www.w3.org/2000/svg" viewBox="0 0 60 60"><defs><style>.cls-1{fill:#102639;}.cls-2{fill:#cdf200;}</style></defs><path class="cls-1" d="M42.65,38.94V21.06a7.32,7.32,0,1,0-8.79-7.17,7.19,7.19,0,0,0,.29,1.92L20.48,26.88a7.25,7.25,0,0,0-5.66-2.74A7.33,7.33,0,1,0,20.61,35.9l13.5,8.43a7,7,0,0,0-.25,1.78,7.33,7.33,0,1,0,8.79-7.17Zm-2.93,0a7.31,7.31,0,0,0-4.33,2.74l-13.5-8.43a7,7,0,0,0,.25-1.79,7.12,7.12,0,0,0-.29-1.91L35.52,18.47a7.27,7.27,0,0,0,4.2,2.59Z"/><path class="cls-2" d="M14.82,35.86a4.4,4.4,0,1,1,4.39-4.4A4.43,4.43,0,0,1,14.82,35.86Z"/><path class="cls-2" d="M41.18,9.49a4.4,4.4,0,1,1-4.39,4.4A4.43,4.43,0,0,1,41.18,9.49Z"/><path class="cls-2" d="M41.18,50.51a4.4,4.4,0,0,1,0-8.79h0a4.4,4.4,0,1,1,0,8.79Z"/></svg>