<svg id="Layer_1" data-name="Layer 1" xmlns="http://www.w3.org/2000/svg" viewBox="0 0 60 60"><defs><style>.cls-1{fill:#cdf200;}.cls-2{fill:#102639;}</style></defs><path class="cls-1" d="M35,24.9l1.4,2.84L11.9,52.22a3.13,3.13,0,0,1-4.43-4.43L31,24.34Z"/><path class="cls-2" d="M54.53,22.38,48,16.06l1.54-8.92A1.56,1.56,0,0,0,49,5.61a1.55,1.55,0,0,0-1.64-.12l-8,4.23-8-4.23A1.57,1.57,0,0,0,29,7.14l1.55,8.92L24.1,22.38A1.54,1.54,0,0,0,23.7,24,1.56,1.56,0,0,0,25,25l2.69.39L6.37,46.69A4.69,4.69,0,0,0,13,53.32L35.91,30.38l2,4.06a1.56,1.56,0,0,0,2.8,0l4-8.12L53.66,25a1.56,1.56,0,0,0,.87-2.66Zm-11.07,1a1.57,1.57,0,0,0-1.18.86l-3,6-1.56-3.18a1.08,1.08,0,0,0-.16-.2c-.05-.07-.07-.16-.14-.22l0,0a1.47,1.47,0,0,0-.28-.18,1.16,1.16,0,0,0-.24-.14,2.47,2.47,0,0,0-.29-.06,2.89,2.89,0,0,0-.29,0l-.27.06a1.67,1.67,0,0,0-.32.08l-.06,0a1.49,1.49,0,0,0-.2.15,1.53,1.53,0,0,0-.21.14L10.8,51.12a1.57,1.57,0,0,1-1.11.45,1.58,1.58,0,0,1-1.12-2.68L32.06,25.44s.06-.1.1-.15a2.33,2.33,0,0,0,.17-.26,1.82,1.82,0,0,0,.11-.3c0-.06.05-.11.06-.17s0-.07,0-.11a1.71,1.71,0,0,0,0-.32,2.8,2.8,0,0,0-.06-.28c0-.09-.08-.17-.12-.26a2.4,2.4,0,0,0-.18-.26s0-.07-.06-.1l-.15-.09a1.51,1.51,0,0,0-.26-.18,1.82,1.82,0,0,0-.3-.11c-.06,0-.11-.05-.17-.06l-2.64-.38,4.81-4.69a1.55,1.55,0,0,0,.45-1.38L32.66,9.73l5.92,3.14a1.57,1.57,0,0,0,1.46,0L46,9.73l-1.14,6.61a1.54,1.54,0,0,0,.44,1.38l4.81,4.68Z"/><path class="cls-2" d="M37.75,27l-1.4-2.83a1.57,1.57,0,0,0-1.19-.86l-4-.56a1.56,1.56,0,1,0-.43,3.09l3.17.45,1,2.1A1.56,1.56,0,0,0,37.75,27Z"/></svg>