<svg id="Layer_1" data-name="Layer 1" xmlns="http://www.w3.org/2000/svg" viewBox="0 0 60 60"><defs><style>.cls-1{fill:#dfeaf3;}.cls-2{fill:#cdf200;}.cls-3{fill:#102639;}</style></defs><rect class="cls-1" x="12.81" y="31.56" width="9.37" height="21.88"/><rect class="cls-2" x="28.44" y="22.19" width="9.37" height="31.25"/><path class="cls-3" d="M54.54,11.71a1.57,1.57,0,0,0-1.1-.46H44.06a1.57,1.57,0,0,0-1.56,1.56V51.88H39.38V22.19a1.57,1.57,0,0,0-1.57-1.57H28.44a1.55,1.55,0,0,0-1.56,1.57V51.88H23.75V31.56A1.57,1.57,0,0,0,22.19,30H12.81a1.57,1.57,0,0,0-1.56,1.56V51.88H8.12V6.56A1.56,1.56,0,0,0,5,6.56H5V53.44A1.57,1.57,0,0,0,6.56,55H53.44a1.57,1.57,0,0,0,.6-.12,1.63,1.63,0,0,0,.49-.33h0a1.63,1.63,0,0,0,.33-.49,1.57,1.57,0,0,0,.12-.6V12.81A1.57,1.57,0,0,0,54.54,11.71ZM20.62,51.88H14.37V33.12h6.25Zm15.63,0H30V23.75h6.25Zm15.63,0H45.62V14.38h6.26Z"/></svg>